<?xml version="1.0" encoding="utf-8"?>
<!-- Generator: Adobe Illustrator 22.0.1, SVG Export Plug-In . SVG Version: 6.00 Build 0)  -->
<svg version="1.1" id="Layer_1" xmlns="http://www.w3.org/2000/svg" xmlns:xlink="http://www.w3.org/1999/xlink" x="0px" y="0px"
	 viewBox="0 0 26 26" style="enable-background:new 0 0 26 26;" xml:space="preserve">
<style type="text/css">
	.st0{fill:#FFFFFF;}
</style>
<g>
	<path class="st0" d="M24.8,12.2h-8.5c-0.3-1.5-1.7-2.6-3.3-2.6s-3,1.1-3.3,2.6H1.2c-0.4,0-0.7,0.3-0.7,0.7s0.3,0.7,0.7,0.7h8.3
		c0.3,1.5,1.7,2.6,3.3,2.6s3-1.1,3.3-2.6h8.5c0.4,0,0.7-0.3,0.7-0.7C25.5,12.6,25.1,12.2,24.8,12.2z M12.9,14.9
		c-1,0-1.9-0.9-1.9-1.9s0.9-1.9,1.9-1.9s1.9,0.9,1.9,1.9S13.9,14.9,12.9,14.9z"/>
	<path class="st0" d="M3.9,7.8c1.6,0,3-1.1,3.3-2.6h17.5c0.4,0,0.7-0.3,0.7-0.7s-0.3-0.7-0.7-0.7H7.3C6.9,2.1,5.6,1,3.9,1
		C2.1,1,0.5,2.5,0.5,4.4S2.1,7.8,3.9,7.8z M3.9,2.5c1,0,1.9,0.9,1.9,1.9S5,6.3,3.9,6.3S2,5.4,2,4.4S2.9,2.5,3.9,2.5z"/>
	<path class="st0" d="M22.1,18.2c-1.6,0-3,1.1-3.3,2.6H1.2c-0.4,0-0.7,0.3-0.7,0.7s0.3,0.7,0.7,0.7h17.5c0.3,1.5,1.7,2.7,3.3,2.7
		c1.9,0,3.4-1.5,3.4-3.4S23.9,18.2,22.1,18.2z M22.1,23.5c-1,0-1.9-0.9-1.9-1.9s0.9-1.9,1.9-1.9c1,0,1.9,0.9,1.9,1.9
		S23.1,23.5,22.1,23.5z"/>
</g>
</svg>
